# xmcd CD database file
#
# Track frame offsets:
#	150
#	13003
#	27821
#	43316
#	62013
#	73855
#	89156
#	107406
#	125162
#	142819
#	161698
#
# Disc length: 2380 seconds
#
# Revision: 2
# Processed by: cddbd v1.5.2PL0 Copyright (c) Steve Scherf et al.
# Submitted via: CDex 1.50beta10
#
DISCID=9b094a0b
DTITLE=Roy Buchanan - A Street Called Straight
DYEAR=1976
DGENRE=Blues Rock
TTITLE0=Running Out
TTITLE1=Keep What You Got
TTITLE2=Man On The Floor
TTITLE3=Good God Have Mercy
TTITLE4=Okay
TTITLE5=Caruso
TTITLE6=My Friend Jeff
TTITLE7=If Six Was Nine
TTITLE8=Guitar Cadenza
TTITLE9=The Messiah Will Come Again
TTITLE10=I Still Think About Ida Mae
EXTD=YEAR: 1976
EXTT0=
EXTT1=
EXTT2=
EXTT3=
EXTT4=
EXTT5=
EXTT6=
EXTT7=
EXTT8=
EXTT9=
EXTT10=
PLAYORDER=
